<svg width="96" height="96" xmlns="http://www.w3.org/2000/svg" xmlns:xlink="http://www.w3.org/1999/xlink" xml:space="preserve" overflow="hidden"><g transform="translate(-592 -312)"><path d="M640 322C619.007 321.994 601.984 339.007 601.978 360 601.972 380.993 618.985 398.016 639.978 398.022 660.971 398.028 677.994 381.015 678 360.022 678 360.018 678 360.014 678 360.01 678.011 339.029 661.011 322.011 640.03 322 640.02 322 640.01 322 640 322ZM640 396.021C620.112 396.027 603.984 379.909 603.978 360.021 603.972 340.133 620.09 324.005 639.978 323.999 659.866 323.993 675.994 340.111 676 359.999 676 360.004 676 360.008 676 360.013 675.98 379.889 659.876 395.998 640 396.024Z" stroke="#FFFFFF" stroke-width="8" fill="#FFFFFF"/><path d="M654.041 344.557 639.998 358.6 625.955 344.557 624.541 345.971 638.584 360.014 624.541 374.057 625.955 375.471 639.998 361.428 654.041 375.471 655.455 374.057 641.412 360.014 655.455 345.971 654.041 344.557Z" stroke="#FFFFFF" stroke-width="8" fill="#FFFFFF"/></g></svg>