<svg width="52" height="52" xmlns="http://www.w3.org/2000/svg" xmlns:xlink="http://www.w3.org/1999/xlink" xml:space="preserve" overflow="hidden"><g transform="translate(-1161 -461)"><path d="M1186.96 468.583C1183.2 468.579 1179.69 470.448 1177.59 473.567 1175.48 476.679 1175.04 480.628 1176.4 484.132L1181.55 495.51 1185.99 504.827C1186.27 505.365 1186.93 505.577 1187.46 505.3 1187.67 505.196 1187.83 505.03 1187.94 504.827L1192.38 495.51 1197.53 484.132C1198.89 480.629 1198.44 476.681 1196.33 473.569 1194.24 470.449 1190.72 468.58 1186.96 468.583ZM1196.53 483.716 1191.4 495.045 1186.97 504.344 1186.96 504.344 1182.53 495.065 1177.4 483.716C1176.18 480.549 1176.59 476.982 1178.49 474.172 1181.65 469.493 1188 468.258 1192.68 471.413 1193.77 472.148 1194.71 473.088 1195.44 474.18 1197.34 476.989 1197.75 480.552 1196.53 483.716Z"/><path d="M1186.96 475.083C1184.27 475.083 1182.09 477.266 1182.09 479.958 1182.09 482.651 1184.27 484.833 1186.96 484.833 1189.66 484.833 1191.84 482.651 1191.84 479.958 1191.85 477.277 1189.68 475.094 1187 475.083 1186.99 475.083 1186.98 475.083 1186.96 475.083ZM1186.96 483.753C1184.87 483.753 1183.17 482.055 1183.17 479.961 1183.17 477.867 1184.87 476.169 1186.96 476.169 1189.06 476.169 1190.76 477.867 1190.76 479.961 1190.78 482.033 1189.12 483.731 1187.04 483.754 1187.02 483.755 1186.99 483.755 1186.96 483.754Z"/></g></svg>