<svg width="49" height="49" xmlns="http://www.w3.org/2000/svg" xmlns:xlink="http://www.w3.org/1999/xlink" xml:space="preserve" overflow="hidden"><g transform="translate(-1160 -399)"><path d="M1201.85 441.671 1191.65 431.973 1201.85 422.275 1201.85 441.671ZM1168.78 442.896 1178.89 433.351 1179.6 432.688C1182.36 430.084 1186.69 430.084 1189.45 432.688L1190.17 433.351 1200.22 442.896 1168.78 442.896ZM1167.15 422.224 1177.35 431.922 1167.15 441.62 1167.15 422.224ZM1174.29 409.208 1194.71 409.208 1194.71 426.205 1190.11 430.595C1186.8 428.043 1182.2 428.043 1178.89 430.595L1174.29 426.205 1174.29 409.208ZM1197.77 410.586 1197.77 406.146 1190.62 406.146 1184.5 401.042 1178.38 406.146 1171.23 406.146 1171.23 410.638 1164.08 417.426 1164.08 445.958 1204.92 445.958 1204.92 417.426 1197.77 410.586Z" stroke="#000000" stroke-width="0.170139"/><path d="M1184.5 420.591C1183.58 420.591 1182.87 419.825 1182.87 418.957 1182.87 418.039 1183.63 417.324 1184.5 417.324 1185.42 417.324 1186.13 418.039 1186.13 418.957 1186.13 419.876 1185.42 420.591 1184.5 420.591ZM1184.5 425.542C1185.67 425.542 1186.8 425.235 1187.82 424.725 1188.23 424.47 1188.38 423.959 1188.18 423.551 1187.92 423.143 1187.41 422.99 1187 423.194 1186.24 423.602 1185.37 423.806 1184.5 423.806 1181.79 423.806 1179.55 421.56 1179.6 418.855 1179.6 416.15 1181.85 413.904 1184.55 413.904 1187.26 413.904 1189.5 416.099 1189.5 418.855L1189.5 420.489C1188.58 420.489 1187.87 419.774 1187.87 418.855 1187.87 417.222 1186.75 415.844 1185.16 415.538 1183.58 415.231 1182 416.099 1181.44 417.579 1180.88 419.059 1181.44 420.795 1182.82 421.611 1184.19 422.428 1185.98 422.173 1187.05 420.948 1187.66 421.663 1188.58 422.071 1189.55 422.071 1190.47 422.071 1191.19 421.356 1191.19 420.438L1191.19 418.804C1191.19 415.129 1188.23 412.169 1184.55 412.169 1180.88 412.169 1177.92 415.129 1177.92 418.804 1177.86 422.53 1180.82 425.491 1184.5 425.542Z" stroke="#000000" stroke-width="0.170139"/></g></svg>