<svg width="48" height="52" xmlns="http://www.w3.org/2000/svg" xmlns:xlink="http://www.w3.org/1999/xlink" xml:space="preserve" overflow="hidden"><g transform="translate(-1161 -335)"><path d="M43.35 35.31 36.45 28.41C35.6085 27.5539 34.2323 27.5422 33.3763 28.3837 33.3675 28.3924 33.3587 28.4011 33.35 28.41L29.65 32.26C29.23 32.66 28.57 32.66 28.15 32.26L15.75 19.9055C15.3497 19.4856 15.3497 18.8254 15.75 18.4055L19.6 14.6055C20.4561 13.7632 20.4672 12.3864 19.6249 11.5304 19.6166 11.522 19.6084 11.5138 19.6 11.5055L12.7 4.65C12.3041 4.24572 11.7657 4.01242 11.2 4 10.6195 4.01178 10.0653 4.24419 9.65 4.65L5.7 8.6C4.70451 9.5203 4.1117 10.7957 4.05 12.15 3.97998 14.3729 4.37155 16.5861 5.2 18.65 6.0226 20.4956 7.02755 22.2544 8.2 23.9 12.2744 30.0439 17.4436 35.3865 23.45 39.661 24.4501 40.4031 25.5029 41.0715 26.6 41.661 29.0843 42.9674 31.8038 43.7663 34.6 44.011 34.7603 44.0233 34.9205 44.0297 35.0805 44.03 36.8335 44.0241 38.5059 43.2929 39.7005 42.01L43.3005 38.41C43.7142 38 43.948 37.4425 43.9505 36.86 43.9663 36.2837 43.7499 35.7253 43.35 35.31ZM10.3555 5.36C10.5835 5.1408 10.884 5.0127 11.2 5 11.5014 5.01425 11.7859 5.14305 11.9955 5.36L18.8955 12.21C19.3612 12.6615 19.3727 13.4051 18.9211 13.8708 18.9142 13.8779 18.9071 13.885 18.9 13.892L17.49 15.283 8.9615 6.755ZM38.995 41.3045 38.9815 41.318 38.969 41.3315C37.9649 42.4123 36.5573 43.0279 35.082 43.0315 34.948 43.0315 34.813 43.026 34.6715 43.015 32.0121 42.7813 29.4261 42.0197 27.0645 40.775 26.0149 40.2105 25.0074 39.5709 24.05 38.861L24.0395 38.853 24.028 38.845C18.1143 34.6421 13.0267 29.3841 9.021 23.335 7.89205 21.7531 6.9239 20.0623 6.131 18.288 5.545 16.643 4.9 14.473 5.05 12.22L5.05 12.205 5.05 12.1905C5.1034 11.0974 5.5845 10.069 6.3895 9.3275L6.399 9.3185 6.408 9.3095 8.255 7.462 16.7785 15.9855 15.0435 17.7C14.2519 18.5108 14.2519 19.8052 15.0435 20.616L27.4435 32.966C28.2596 33.762 29.5635 33.7557 30.372 32.952L32.0245 31.232 40.546 39.753ZM42.595 37.7045 41.253 39.047 32.7175 30.511 34.059 29.115C34.5096 28.6495 35.2522 28.6376 35.7177 29.0882 35.7267 29.097 35.7357 29.1059 35.7445 29.115L42.6445 36.015C43.0728 36.5033 43.051 37.2395 42.5945 37.7015Z" transform="matrix(-1 0 0 1.08333 1209 335)"/></g></svg>